<?xml version="1.0" encoding="UTF-8" ?>
<svg version="1.1" width="128" height="128" xmlns="http://www.w3.org/2000/svg" shape-rendering="crispEdges">
<rect x="52" y="8" width="24" height="4" fill="#FECC3C" />
<rect x="46" y="10" width="6" height="4" fill="#FECC3C" />
<rect x="76" y="10" width="6" height="4" fill="#FECC3C" />
<rect x="40" y="12" width="6" height="4" fill="#FECC3C" />
<rect x="52" y="12" width="2" height="2" fill="#FECC3C" />
<rect x="54" y="12" width="20" height="2" fill="#FFFFFF" />
<rect x="74" y="12" width="2" height="2" fill="#FECC3C" />
<rect x="82" y="12" width="6" height="4" fill="#FECC3C" />
<rect x="36" y="14" width="4" height="4" fill="#FECC3C" />
<rect x="46" y="14" width="2" height="2" fill="#FECC3C" />
<rect x="48" y="14" width="6" height="2" fill="#FFFFFF" />
<rect x="54" y="14" width="20" height="20" fill="#BE202F" />
<rect x="74" y="14" width="6" height="2" fill="#FFFFFF" />
<rect x="80" y="14" width="2" height="2" fill="#FECC3C" />
<rect x="88" y="14" width="4" height="4" fill="#FECC3C" />
<rect x="34" y="16" width="2" height="6" fill="#FECC3C" />
<rect x="40" y="16" width="2" height="2" fill="#FECC3C" />
<rect x="42" y="16" width="4" height="2" fill="#FFFFFF" />
<rect x="46" y="16" width="8" height="18" fill="#BE202F" />
<rect x="74" y="16" width="8" height="18" fill="#BE202F" />
<rect x="82" y="16" width="4" height="2" fill="#FFFFFF" />
<rect x="86" y="16" width="2" height="2" fill="#FECC3C" />
<rect x="92" y="16" width="2" height="6" fill="#FECC3C" />
<rect x="30" y="18" width="4" height="4" fill="#FECC3C" />
<rect x="36" y="18" width="2" height="2" fill="#FECC3C" />
<rect x="38" y="18" width="4" height="2" fill="#FFFFFF" />
<rect x="42" y="18" width="4" height="16" fill="#BE202F" />
<rect x="82" y="18" width="4" height="30" fill="#BE202F" />
<rect x="86" y="18" width="4" height="2" fill="#FFFFFF" />
<rect x="90" y="18" width="2" height="2" fill="#FECC3C" />
<rect x="94" y="18" width="4" height="4" fill="#FECC3C" />
<rect x="28" y="20" width="2" height="6" fill="#FECC3C" />
<rect x="36" y="20" width="2" height="2" fill="#FFFFFF" />
<rect x="38" y="20" width="4" height="14" fill="#BE202F" />
<rect x="86" y="20" width="4" height="14" fill="#BE202F" />
<rect x="90" y="20" width="2" height="2" fill="#FFFFFF" />
<rect x="98" y="20" width="2" height="6" fill="#FECC3C" />
<rect x="26" y="22" width="2" height="6" fill="#FECC3C" />
<rect x="30" y="22" width="2" height="2" fill="#FECC3C" />
<rect x="32" y="22" width="4" height="2" fill="#FFFFFF" />
<rect x="36" y="22" width="2" height="14" fill="#BE202F" />
<rect x="90" y="22" width="2" height="84" fill="#BE202F" />
<rect x="92" y="22" width="4" height="2" fill="#FFFFFF" />
<rect x="96" y="22" width="2" height="2" fill="#FECC3C" />
<rect x="100" y="22" width="2" height="6" fill="#FECC3C" />
<rect x="24" y="24" width="2" height="6" fill="#FECC3C" />
<rect x="30" y="24" width="2" height="2" fill="#FFFFFF" />
<rect x="32" y="24" width="4" height="10" fill="#BE202F" />
<rect x="92" y="24" width="4" height="10" fill="#BE202F" />
<rect x="96" y="24" width="2" height="2" fill="#FFFFFF" />
<rect x="102" y="24" width="2" height="6" fill="#FECC3C" />
<rect x="22" y="26" width="2" height="6" fill="#FECC3C" />
<rect x="28" y="26" width="2" height="2" fill="#FFFFFF" />
<rect x="30" y="26" width="2" height="8" fill="#BE202F" />
<rect x="96" y="26" width="2" height="20" fill="#BE202F" />
<rect x="98" y="26" width="2" height="2" fill="#FFFFFF" />
<rect x="104" y="26" width="2" height="6" fill="#FECC3C" />
<rect x="20" y="28" width="2" height="8" fill="#FECC3C" />
<rect x="26" y="28" width="2" height="2" fill="#FFFFFF" />
<rect x="28" y="28" width="2" height="16" fill="#BE202F" />
<rect x="98" y="28" width="2" height="18" fill="#BE202F" />
<rect x="100" y="28" width="2" height="2" fill="#FFFFFF" />
<rect x="106" y="28" width="2" height="8" fill="#FECC3C" />
<rect x="18" y="30" width="2" height="8" fill="#FECC3C" />
<rect x="24" y="30" width="2" height="2" fill="#FFFFFF" />
<rect x="26" y="30" width="2" height="12" fill="#BE202F" />
<rect x="100" y="30" width="2" height="16" fill="#BE202F" />
<rect x="102" y="30" width="2" height="2" fill="#FFFFFF" />
<rect x="108" y="30" width="2" height="8" fill="#FECC3C" />
<rect x="22" y="32" width="2" height="4" fill="#FFFFFF" />
<rect x="24" y="32" width="2" height="8" fill="#BE202F" />
<rect x="102" y="32" width="2" height="14" fill="#BE202F" />
<rect x="104" y="32" width="2" height="4" fill="#FFFFFF" />
<rect x="16" y="34" width="2" height="8" fill="#FECC3C" />
<rect x="30" y="34" width="4" height="12" fill="#FFFFFF" />
<rect x="34" y="34" width="2" height="70" fill="#BE202F" />
<rect x="38" y="34" width="8" height="2" fill="#FFFFFF" />
<rect x="46" y="34" width="6" height="2" fill="#BE202F" />
<rect x="52" y="34" width="2" height="6" fill="#FFFFFF" />
<rect x="54" y="34" width="4" height="2" fill="#BE202F" />
<rect x="58" y="34" width="2" height="6" fill="#FFFFFF" />
<rect x="60" y="34" width="6" height="2" fill="#BE202F" />
<rect x="66" y="34" width="10" height="4" fill="#FFFFFF" />
<rect x="76" y="34" width="2" height="78" fill="#BE202F" />
<rect x="78" y="34" width="4" height="14" fill="#FFFFFF" />
<rect x="86" y="34" width="4" height="14" fill="#FFFFFF" />
<rect x="92" y="34" width="4" height="14" fill="#FFFFFF" />
<rect x="110" y="34" width="2" height="8" fill="#FECC3C" />
<rect x="14" y="36" width="2" height="12" fill="#FECC3C" />
<rect x="20" y="36" width="2" height="2" fill="#FFFFFF" />
<rect x="22" y="36" width="2" height="6" fill="#BE202F" />
<rect x="36" y="36" width="4" height="12" fill="#FFFFFF" />
<rect x="40" y="36" width="4" height="12" fill="#BE202F" />
<rect x="44" y="36" width="4" height="12" fill="#FFFFFF" />
<rect x="48" y="36" width="2" height="76" fill="#BE202F" />
<rect x="50" y="36" width="2" height="2" fill="#FFFFFF" />
<rect x="54" y="36" width="4" height="14" fill="#FFFFFF" />
<rect x="60" y="36" width="2" height="2" fill="#FFFFFF" />
<rect x="62" y="36" width="2" height="18" fill="#BE202F" />
<rect x="64" y="36" width="2" height="14" fill="#FFFFFF" />
<rect x="104" y="36" width="2" height="24" fill="#BE202F" />
<rect x="106" y="36" width="2" height="2" fill="#FFFFFF" />
<rect x="112" y="36" width="2" height="12" fill="#FECC3C" />
<rect x="18" y="38" width="2" height="4" fill="#FFFFFF" />
<rect x="20" y="38" width="2" height="52" fill="#BE202F" />
<rect x="50" y="38" width="2" height="40" fill="#BE202F" />
<rect x="60" y="38" width="2" height="16" fill="#BE202F" />
<rect x="66" y="38" width="2" height="12" fill="#FFFFFF" />
<rect x="68" y="38" width="8" height="2" fill="#BE202F" />
<rect x="106" y="38" width="2" height="52" fill="#BE202F" />
<rect x="108" y="38" width="2" height="4" fill="#FFFFFF" />
<rect x="12" y="40" width="2" height="14" fill="#FECC3C" />
<rect x="24" y="40" width="2" height="6" fill="#FFFFFF" />
<rect x="52" y="40" width="2" height="16" fill="#BE202F" />
<rect x="58" y="40" width="2" height="14" fill="#BE202F" />
<rect x="68" y="40" width="8" height="4" fill="#FFFFFF" />
<rect x="114" y="40" width="2" height="14" fill="#FECC3C" />
<rect x="16" y="42" width="2" height="4" fill="#FFFFFF" />
<rect x="18" y="42" width="2" height="44" fill="#BE202F" />
<rect x="22" y="42" width="2" height="2" fill="#FFFFFF" />
<rect x="26" y="42" width="2" height="6" fill="#FFFFFF" />
<rect x="108" y="42" width="2" height="44" fill="#BE202F" />
<rect x="110" y="42" width="2" height="4" fill="#FFFFFF" />
<rect x="22" y="44" width="2" height="16" fill="#BE202F" />
<rect x="28" y="44" width="2" height="6" fill="#FFFFFF" />
<rect x="68" y="44" width="8" height="10" fill="#BE202F" />
<rect x="10" y="46" width="2" height="36" fill="#FECC3C" />
<rect x="16" y="46" width="2" height="36" fill="#BE202F" />
<rect x="24" y="46" width="2" height="14" fill="#BE202F" />
<rect x="30" y="46" width="2" height="2" fill="#FFFFFF" />
<rect x="32" y="46" width="2" height="34" fill="#BE202F" />
<rect x="96" y="46" width="8" height="4" fill="#FFFFFF" />
<rect x="110" y="46" width="2" height="36" fill="#BE202F" />
<rect x="116" y="46" width="2" height="36" fill="#FECC3C" />
<rect x="14" y="48" width="2" height="6" fill="#FFFFFF" />
<rect x="26" y="48" width="2" height="10" fill="#BE202F" />
<rect x="30" y="48" width="2" height="12" fill="#BE202F" />
<rect x="36" y="48" width="2" height="30" fill="#BE202F" />
<rect x="38" y="48" width="8" height="2" fill="#FFFFFF" />
<rect x="46" y="48" width="2" height="30" fill="#BE202F" />
<rect x="78" y="48" width="2" height="32" fill="#BE202F" />
<rect x="80" y="48" width="8" height="2" fill="#FFFFFF" />
<rect x="88" y="48" width="2" height="30" fill="#BE202F" />
<rect x="92" y="48" width="2" height="30" fill="#BE202F" />
<rect x="94" y="48" width="2" height="2" fill="#FFFFFF" />
<rect x="112" y="48" width="2" height="6" fill="#FFFFFF" />
<rect x="28" y="50" width="2" height="10" fill="#BE202F" />
<rect x="38" y="50" width="8" height="28" fill="#BE202F" />
<rect x="54" y="50" width="4" height="4" fill="#BE202F" />
<rect x="64" y="50" width="4" height="4" fill="#BE202F" />
<rect x="80" y="50" width="8" height="28" fill="#BE202F" />
<rect x="94" y="50" width="10" height="8" fill="#BE202F" />
<rect x="8" y="52" width="2" height="24" fill="#FECC3C" />
<rect x="118" y="52" width="2" height="24" fill="#FECC3C" />
<rect x="12" y="54" width="2" height="20" fill="#FFFFFF" />
<rect x="14" y="54" width="2" height="20" fill="#BE202F" />
<rect x="54" y="54" width="20" height="2" fill="#FFFFFF" />
<rect x="74" y="54" width="2" height="2" fill="#BE202F" />
<rect x="112" y="54" width="2" height="20" fill="#BE202F" />
<rect x="114" y="54" width="2" height="20" fill="#FFFFFF" />
<rect x="52" y="56" width="2" height="6" fill="#FFFFFF" />
<rect x="54" y="56" width="4" height="2" fill="#FECC3C" />
<rect x="58" y="56" width="2" height="2" fill="#FFFFFF" />
<rect x="60" y="56" width="8" height="2" fill="#FECC3C" />
<rect x="68" y="56" width="2" height="2" fill="#FFFFFF" />
<rect x="70" y="56" width="4" height="2" fill="#FECC3C" />
<rect x="74" y="56" width="2" height="6" fill="#FFFFFF" />
<rect x="26" y="58" width="2" height="6" fill="#FFFFFF" />
<rect x="54" y="58" width="2" height="4" fill="#FECC3C" />
<rect x="56" y="58" width="2" height="2" fill="#FFFFFF" />
<rect x="58" y="58" width="2" height="4" fill="#FECC3C" />
<rect x="60" y="58" width="2" height="2" fill="#FFFFFF" />
<rect x="62" y="58" width="4" height="4" fill="#FECC3C" />
<rect x="66" y="58" width="2" height="2" fill="#FFFFFF" />
<rect x="68" y="58" width="2" height="4" fill="#FECC3C" />
<rect x="70" y="58" width="2" height="2" fill="#FFFFFF" />
<rect x="72" y="58" width="2" height="4" fill="#FECC3C" />
<rect x="94" y="58" width="6" height="2" fill="#BE202F" />
<rect x="100" y="58" width="2" height="6" fill="#FFFFFF" />
<rect x="102" y="58" width="2" height="2" fill="#BE202F" />
<rect x="22" y="60" width="4" height="2" fill="#FFFFFF" />
<rect x="28" y="60" width="4" height="2" fill="#FFFFFF" />
<rect x="56" y="60" width="2" height="2" fill="#FECC3C" />
<rect x="60" y="60" width="2" height="2" fill="#FECC3C" />
<rect x="66" y="60" width="2" height="2" fill="#FECC3C" />
<rect x="70" y="60" width="2" height="2" fill="#FECC3C" />
<rect x="94" y="60" width="2" height="18" fill="#BE202F" />
<rect x="96" y="60" width="4" height="2" fill="#FFFFFF" />
<rect x="102" y="60" width="4" height="2" fill="#FFFFFF" />
<rect x="22" y="62" width="2" height="2" fill="#BE202F" />
<rect x="24" y="62" width="2" height="4" fill="#FFFFFF" />
<rect x="28" y="62" width="2" height="4" fill="#FFFFFF" />
<rect x="30" y="62" width="2" height="2" fill="#BE202F" />
<rect x="52" y="62" width="2" height="4" fill="#BE202F" />
<rect x="54" y="62" width="20" height="4" fill="#8F563B" />
<rect x="74" y="62" width="2" height="4" fill="#BE202F" />
<rect x="96" y="62" width="2" height="2" fill="#BE202F" />
<rect x="98" y="62" width="2" height="4" fill="#FFFFFF" />
<rect x="102" y="62" width="2" height="4" fill="#FFFFFF" />
<rect x="104" y="62" width="2" height="2" fill="#BE202F" />
<rect x="22" y="64" width="2" height="2" fill="#FFFFFF" />
<rect x="26" y="64" width="2" height="14" fill="#BE202F" />
<rect x="30" y="64" width="2" height="2" fill="#FFFFFF" />
<rect x="96" y="64" width="2" height="2" fill="#FFFFFF" />
<rect x="100" y="64" width="2" height="14" fill="#BE202F" />
<rect x="104" y="64" width="2" height="2" fill="#FFFFFF" />
<rect x="22" y="66" width="4" height="12" fill="#BE202F" />
<rect x="28" y="66" width="4" height="12" fill="#BE202F" />
<rect x="52" y="66" width="2" height="6" fill="#FFFFFF" />
<rect x="54" y="66" width="20" height="6" fill="#FECC3C" />
<rect x="74" y="66" width="2" height="6" fill="#FFFFFF" />
<rect x="96" y="66" width="4" height="12" fill="#BE202F" />
<rect x="102" y="66" width="4" height="14" fill="#BE202F" />
<rect x="52" y="72" width="2" height="6" fill="#BE202F" />
<rect x="54" y="72" width="20" height="2" fill="#FFFFFF" />
<rect x="74" y="72" width="2" height="14" fill="#BE202F" />
<rect x="12" y="74" width="2" height="14" fill="#FECC3C" />
<rect x="14" y="74" width="2" height="6" fill="#FFFFFF" />
<rect x="54" y="74" width="20" height="4" fill="#BE202F" />
<rect x="112" y="74" width="2" height="6" fill="#FFFFFF" />
<rect x="114" y="74" width="2" height="14" fill="#FECC3C" />
<rect x="22" y="78" width="10" height="4" fill="#FFFFFF" />
<rect x="36" y="78" width="4" height="14" fill="#FFFFFF" />
<rect x="40" y="78" width="4" height="14" fill="#BE202F" />
<rect x="44" y="78" width="4" height="14" fill="#FFFFFF" />
<rect x="50" y="78" width="10" height="2" fill="#FFFFFF" />
<rect x="60" y="78" width="6" height="2" fill="#BE202F" />
<rect x="66" y="78" width="8" height="4" fill="#FFFFFF" />
<rect x="80" y="78" width="10" height="4" fill="#FFFFFF" />
<rect x="92" y="78" width="10" height="2" fill="#FFFFFF" />
<rect x="14" y="80" width="2" height="12" fill="#FECC3C" />
<rect x="32" y="80" width="2" height="4" fill="#FFFFFF" />
<rect x="50" y="80" width="4" height="14" fill="#FFFFFF" />
<rect x="54" y="80" width="4" height="4" fill="#BE202F" />
<rect x="58" y="80" width="4" height="4" fill="#FFFFFF" />
<rect x="62" y="80" width="2" height="34" fill="#BE202F" />
<rect x="64" y="80" width="2" height="12" fill="#FFFFFF" />
<rect x="78" y="80" width="2" height="12" fill="#FFFFFF" />
<rect x="92" y="80" width="4" height="14" fill="#FFFFFF" />
<rect x="96" y="80" width="4" height="4" fill="#BE202F" />
<rect x="100" y="80" width="4" height="4" fill="#FFFFFF" />
<rect x="104" y="80" width="2" height="12" fill="#BE202F" />
<rect x="112" y="80" width="2" height="12" fill="#FECC3C" />
<rect x="16" y="82" width="2" height="4" fill="#FFFFFF" />
<rect x="22" y="82" width="4" height="12" fill="#FFFFFF" />
<rect x="26" y="82" width="4" height="2" fill="#BE202F" />
<rect x="30" y="82" width="2" height="12" fill="#FFFFFF" />
<rect x="66" y="82" width="8" height="2" fill="#BE202F" />
<rect x="80" y="82" width="2" height="12" fill="#FFFFFF" />
<rect x="82" y="82" width="8" height="2" fill="#BE202F" />
<rect x="110" y="82" width="2" height="4" fill="#FFFFFF" />
<rect x="26" y="84" width="4" height="4" fill="#FFFFFF" />
<rect x="32" y="84" width="2" height="2" fill="#BE202F" />
<rect x="54" y="84" width="6" height="2" fill="#FFFFFF" />
<rect x="60" y="84" width="2" height="6" fill="#BE202F" />
<rect x="66" y="84" width="2" height="6" fill="#BE202F" />
<rect x="68" y="84" width="6" height="4" fill="#FFFFFF" />
<rect x="82" y="84" width="8" height="4" fill="#FFFFFF" />
<rect x="96" y="84" width="6" height="2" fill="#FFFFFF" />
<rect x="102" y="84" width="2" height="6" fill="#BE202F" />
<rect x="16" y="86" width="2" height="8" fill="#FECC3C" />
<rect x="18" y="86" width="2" height="4" fill="#FFFFFF" />
<rect x="32" y="86" width="2" height="6" fill="#FFFFFF" />
<rect x="54" y="86" width="4" height="4" fill="#FFFFFF" />
<rect x="58" y="86" width="2" height="2" fill="#BE202F" />
<rect x="74" y="86" width="2" height="6" fill="#FFFFFF" />
<rect x="96" y="86" width="4" height="4" fill="#FFFFFF" />
<rect x="100" y="86" width="2" height="2" fill="#BE202F" />
<rect x="108" y="86" width="2" height="4" fill="#FFFFFF" />
<rect x="110" y="86" width="2" height="8" fill="#FECC3C" />
<rect x="26" y="88" width="4" height="2" fill="#BE202F" />
<rect x="58" y="88" width="2" height="6" fill="#FFFFFF" />
<rect x="68" y="88" width="4" height="2" fill="#BE202F" />
<rect x="72" y="88" width="2" height="6" fill="#FFFFFF" />
<rect x="82" y="88" width="8" height="2" fill="#BE202F" />
<rect x="100" y="88" width="2" height="6" fill="#FFFFFF" />
<rect x="18" y="90" width="2" height="8" fill="#FECC3C" />
<rect x="20" y="90" width="2" height="2" fill="#FFFFFF" />
<rect x="26" y="90" width="4" height="4" fill="#FFFFFF" />
<rect x="54" y="90" width="2" height="24" fill="#BE202F" />
<rect x="56" y="90" width="2" height="2" fill="#FFFFFF" />
<rect x="60" y="90" width="2" height="4" fill="#FFFFFF" />
<rect x="66" y="90" width="6" height="4" fill="#FFFFFF" />
<rect x="82" y="90" width="8" height="4" fill="#FFFFFF" />
<rect x="96" y="90" width="2" height="12" fill="#BE202F" />
<rect x="98" y="90" width="2" height="2" fill="#FFFFFF" />
<rect x="102" y="90" width="2" height="4" fill="#FFFFFF" />
<rect x="106" y="90" width="2" height="2" fill="#FFFFFF" />
<rect x="108" y="90" width="2" height="8" fill="#FECC3C" />
<rect x="20" y="92" width="2" height="8" fill="#FECC3C" />
<rect x="32" y="92" width="2" height="12" fill="#BE202F" />
<rect x="36" y="92" width="2" height="14" fill="#BE202F" />
<rect x="38" y="92" width="8" height="2" fill="#FFFFFF" />
<rect x="46" y="92" width="2" height="20" fill="#BE202F" />
<rect x="56" y="92" width="2" height="22" fill="#BE202F" />
<rect x="64" y="92" width="2" height="22" fill="#BE202F" />
<rect x="74" y="92" width="2" height="20" fill="#BE202F" />
<rect x="78" y="92" width="2" height="20" fill="#BE202F" />
<rect x="98" y="92" width="2" height="8" fill="#BE202F" />
<rect x="104" y="92" width="2" height="4" fill="#FFFFFF" />
<rect x="106" y="92" width="2" height="8" fill="#FECC3C" />
<rect x="22" y="94" width="2" height="2" fill="#FFFFFF" />
<rect x="24" y="94" width="8" height="2" fill="#BE202F" />
<rect x="38" y="94" width="8" height="14" fill="#BE202F" />
<rect x="50" y="94" width="4" height="18" fill="#BE202F" />
<rect x="58" y="94" width="4" height="20" fill="#BE202F" />
<rect x="66" y="94" width="8" height="20" fill="#BE202F" />
<rect x="80" y="94" width="10" height="14" fill="#BE202F" />
<rect x="92" y="94" width="4" height="10" fill="#BE202F" />
<rect x="100" y="94" width="4" height="2" fill="#BE202F" />
<rect x="22" y="96" width="2" height="6" fill="#FECC3C" />
<rect x="24" y="96" width="2" height="2" fill="#FFFFFF" />
<rect x="26" y="96" width="6" height="2" fill="#BE202F" />
<rect x="100" y="96" width="2" height="2" fill="#BE202F" />
<rect x="102" y="96" width="2" height="2" fill="#FFFFFF" />
<rect x="104" y="96" width="2" height="6" fill="#FECC3C" />
<rect x="24" y="98" width="2" height="6" fill="#FECC3C" />
<rect x="26" y="98" width="2" height="2" fill="#FFFFFF" />
<rect x="28" y="98" width="4" height="2" fill="#BE202F" />
<rect x="100" y="98" width="2" height="2" fill="#FFFFFF" />
<rect x="102" y="98" width="2" height="6" fill="#FECC3C" />
<rect x="26" y="100" width="2" height="6" fill="#FECC3C" />
<rect x="28" y="100" width="2" height="2" fill="#FFFFFF" />
<rect x="30" y="100" width="2" height="2" fill="#BE202F" />
<rect x="98" y="100" width="2" height="2" fill="#FFFFFF" />
<rect x="100" y="100" width="2" height="6" fill="#FECC3C" />
<rect x="28" y="102" width="2" height="6" fill="#FECC3C" />
<rect x="30" y="102" width="2" height="2" fill="#FFFFFF" />
<rect x="96" y="102" width="2" height="2" fill="#FFFFFF" />
<rect x="98" y="102" width="2" height="6" fill="#FECC3C" />
<rect x="30" y="104" width="2" height="6" fill="#FECC3C" />
<rect x="32" y="104" width="4" height="2" fill="#FFFFFF" />
<rect x="92" y="104" width="4" height="2" fill="#FFFFFF" />
<rect x="96" y="104" width="2" height="6" fill="#FECC3C" />
<rect x="32" y="106" width="4" height="4" fill="#FECC3C" />
<rect x="36" y="106" width="2" height="2" fill="#FFFFFF" />
<rect x="90" y="106" width="2" height="2" fill="#FFFFFF" />
<rect x="92" y="106" width="4" height="4" fill="#FECC3C" />
<rect x="36" y="108" width="2" height="6" fill="#FECC3C" />
<rect x="38" y="108" width="4" height="2" fill="#FFFFFF" />
<rect x="42" y="108" width="4" height="2" fill="#BE202F" />
<rect x="80" y="108" width="6" height="2" fill="#BE202F" />
<rect x="86" y="108" width="4" height="2" fill="#FFFFFF" />
<rect x="90" y="108" width="2" height="6" fill="#FECC3C" />
<rect x="34" y="110" width="2" height="2" fill="#FECC3C" />
<rect x="38" y="110" width="4" height="4" fill="#FECC3C" />
<rect x="42" y="110" width="4" height="2" fill="#FFFFFF" />
<rect x="80" y="110" width="2" height="2" fill="#BE202F" />
<rect x="82" y="110" width="4" height="2" fill="#FFFFFF" />
<rect x="86" y="110" width="4" height="4" fill="#FECC3C" />
<rect x="92" y="110" width="2" height="2" fill="#FECC3C" />
<rect x="42" y="112" width="6" height="4" fill="#FECC3C" />
<rect x="48" y="112" width="6" height="2" fill="#FFFFFF" />
<rect x="74" y="112" width="6" height="2" fill="#FFFFFF" />
<rect x="80" y="112" width="6" height="4" fill="#FECC3C" />
<rect x="40" y="114" width="2" height="2" fill="#FECC3C" />
<rect x="48" y="114" width="6" height="4" fill="#FECC3C" />
<rect x="54" y="114" width="20" height="2" fill="#FFFFFF" />
<rect x="74" y="114" width="6" height="4" fill="#FECC3C" />
<rect x="86" y="114" width="2" height="2" fill="#FECC3C" />
<rect x="46" y="116" width="2" height="2" fill="#FECC3C" />
<rect x="54" y="116" width="20" height="4" fill="#FECC3C" />
<rect x="80" y="116" width="2" height="2" fill="#FECC3C" />
<rect x="52" y="118" width="2" height="2" fill="#FECC3C" />
<rect x="74" y="118" width="2" height="2" fill="#FECC3C" />
</svg>